<svg xmlns="http://www.w3.org/2000/svg" height="355pt" version="1.1" viewBox="0 0 355 355.07851" width="355pt">
<g id="surface1">
<path d="M 353.300781 1.679688 C 351.5625 -0.0625 348.902344 -0.496094 346.695312 0.601562 L 3.210938 172.34375 C 0.382812 173.757812 -0.769531 177.191406 0.640625 180.023438 C 1.609375 181.96875 3.597656 183.195312 5.769531 183.195312 L 171.789062 183.195312 L 171.789062 349.210938 C 171.75 352.371094 174.285156 354.964844 177.449219 355 C 179.664062 355.023438 181.699219 353.765625 182.664062 351.769531 L 354.40625 8.285156 C 355.5 6.074219 355.054688 3.414062 353.300781 1.679688 Z M 183.238281 324.960938 L 183.238281 177.46875 C 183.238281 174.308594 180.675781 171.746094 177.511719 171.746094 L 30.019531 171.746094 L 336.457031 18.527344 Z M 183.238281 324.960938 " style=" stroke:none;fill-rule:nonzero;fill:rgb(0%,0%,0%);fill-opacity:1;" />
</g>
</svg>